<svg xmlns="http://www.w3.org/2000/svg" width="512" height="512" viewBox="0 0 64 64">
	<desc>SAZANKA LOGO</desc>
	<g style="fill:none;stroke:#a00;stroke-width:2;stroke-linecap:round;stroke-linejoin:round;" transform="translate(32,32)">
		<circle r="31" style="fill:#fff;stroke:#ddd;"/>
		<g>
			<path d="M7,-19c8,-6,21,8,17,19"/>
			<path d="M21,-3c8,6,1,23,-9,23"/>
			<path d="M13,-13c3,-17,-29,-17,-26,0" transform="rotate(180)" stroke="#0c0"/>
			<path d="M7,-19c8,-6,21,8,17,19" transform="rotate(180)" stroke="#04c"/>
			<path d="M21,-3c8,6,1,23,-9,23" transform="rotate(180)" stroke="#a0a"/>
			<path d="M13,-13c3,-17,-29,-17,-26,0"/>
		</g>
		<path d="M11,-11q-11,-16,-22,0,-16,11,0,22,11,16,22,0,16,-11,0,-22"/>
		<path d="M13,0l-4,-9,-9,-4,-9,4,-4,9,4,9,9,4,9,-4z" stroke="#222"/>
		<circle r="11" stroke="#444"/>
		<path d="M-6,-3v5l3,2v1 M0,-6v4l-3,2v1 M3,0l-3,2v4 M6,-3v5l-3,2v1" stroke="#666" stroke-width="1.5"/>
	</g>
</svg>