<svg xmlns="http://www.w3.org/2000/svg" width="512" height="512" viewBox="0 0 64 64">
	<desc>SAZANKA LOGO legacy</desc>
	<g style="fill:none;stroke:#a00;stroke-width:2;stroke-linecap:round;stroke-linejoin:round;" transform="translate(32,32)">
		<circle r="30" style="fill:#fff;stroke:#ddd;"/>

		<!--gear-->
		<g style="fill:#333;stroke:#333;">
			<path d="M2,-12l-1,-3,-2,0,-1,3"/>
			<path d="M2,-12l-1,-3,-2,0,-1,3" transform="rotate(45)"/>
			<path d="M2,-12l-1,-3,-2,0,-1,3" transform="rotate(90)"/>
			<path d="M2,-12l-1,-3,-2,0,-1,3" transform="rotate(135)"/>
			<path d="M2,-12l-1,-3,-2,0,-1,3" transform="rotate(180)"/>
			<path d="M2,-12l-1,-3,-2,0,-1,3" transform="rotate(225)"/>
			<path d="M2,-12l-1,-3,-2,0,-1,3" transform="rotate(270)"/>
			<path d="M2,-12l-1,-3,-2,0,-1,3" transform="rotate(315)"/>
		</g>
		<circle r="12" stroke="#333"/>

		<!--pattern-->
		<path d="M-6,-3v6l3,2v1 M0,-6v5l-3,2v1 M3,1l-3,2v4 M6,-3v6l-3,2v1" style="stroke:#666;stroke-width:1.5;"/>
		<g style="fill:#fff;stroke:#666;stroke-width:1;">
			<circle r="1.2" cx="-6" cy="-3"/>
			<circle r="1.2" cx="0" cy="-6"/>
			<circle r="1.2" cx="6" cy="-3"/>
			<circle r="1.2" cx="3" cy="1"/>
		</g>

		<!--quadral-->
		<g stroke-width="2">
			<path d="M8,-14q-8,-9,-16,0"/>
			<path d="M8,-14q-8,-9,-16,0" transform="rotate(90)"/>
			<path d="M8,-14q-8,-9,-16,0" transform="rotate(180)"/>
			<path d="M8,-14q-8,-9,-16,0" transform="rotate(270)"/>
		</g>

		<!--hexagonal <path d="M12,-13c4,-16,-28,-16,-24,0"/> -->
		<g>
			<path d="M9,-22c-8,-6,-24,-2,-21,9M12,-17c1,2,0,4,0,4"/>
			<path d="M24,-3c1,-8,-6,-19,-16,-16"/>
			<path d="M21,-2c6,5,2,17,-6,21"/>
		</g>
		<g transform="rotate(180)">
			<path d="M9,-22c-8,-6,-24,-2,-21,9M12,-17c1,2,0,4,0,4" stroke="#0b5"/>
			<path d="M24,-3c1,-8,-6,-19,-16,-16" stroke="#04a"/>
			<path d="M21,-2c6,5,2,17,-6,21" stroke="#a09"/>
		</g>
	</g>
</svg>