<svg xmlns="http://www.w3.org/2000/svg" width="1024" height="1024" viewBox="0 0 96 96">
	<desc>SAZANKA medal</desc>
	<g style="fill:none;stroke:#a00;stroke-width:2;stroke-linecap:round;stroke-linejoin:round;" transform="translate(48,48)">
		<circle r="47" style="fill:#ddd;stroke:#bbb;"/>
		<defs><path d="m44,0a44,44,0,1,0-88,0,44,44,0,1,0,88,0" transform="rotate(0)" id="txt"/></defs>
		<text  style="fill:#888;stroke:none;font-size:3.5px;font-weight:bold;font-family:'menlo','consolas',monospace;text-anchor:middle;" transform="rotate(90)">
			<textPath href="#txt" startOffset="50%">Spreading STEM education in Japan and beyond — Encouraging girls to pursue science-related fields — #morethanrobots</textPath>
		</text>

		<circle r="39" style="fill:#eee;stroke:#ccc;"/>
		<g style="stroke:#401;stroke-width:.5;">
			<path d="m4,1l-2-1-2,1v1l4,2-2,1-2-1" transform="rotate(-70)translate(-2-37.5)"/>
			<path d="m0,5v-4l2-1,2,1v4-1l-4-2" transform="rotate(-60)translate(-2-37.5)"/>
			<path d="m0,1l2-1,2,1v1l-4,2,2,1,2-1" transform="rotate(-50)translate(-2-37.5)"/>
			<path d="m0,5v-4l2-1,2,1v4-1l-4-2" transform="rotate(-40)translate(-2-37.5)"/>
			<path d="m0,5v-4,1l4,2v1-4" transform="rotate(-30)translate(-2-37.5)"/>
			<path d="m0,1v4-1l4-2v-1m-2,2l2,1v1" transform="rotate(-20)translate(-2-37.5)"/>
			<path d="m0,5v-4l2-1,2,1v4-1l-4-2" transform="rotate(-10)translate(-2-37.5)"/>

			<path d="m4,5v-1l-4-2v3-4l2-1,2,1v1l-2,1" transform="rotate(10)translate(-2-37.5)"/>
			<path d="m0,2v2l2,1,2-1v-2l-2-1-2,1" transform="rotate(20)translate(-2-37.5)"/>
			<path d="m0,0v4l2,1,2-1v-2l-2-1-2,1" transform="rotate(30)translate(-2-37.5)"/>
			<path d="m0,2v2l2,1,2-1v-2l-2-1-2,1" transform="rotate(40)translate(-2-37.5)"/>
			<path d="m0,0v4l2,1m-2-3l2-1m2,3v-2m0-2v0" transform="rotate(50)translate(-2-37.5)"/>
			<path d="m4,2l-2-1-2,1v2l2,1,2-1" transform="rotate(60)translate(-2-37.5)"/>
			<path d="m4,2l-2-1-2,1,4,2-2,1-2-1" transform="rotate(70)translate(-2-37.5)"/>

			<path d="m0,2l2-1,2,1m0,2l-2-1-2,1" transform="rotate(-90)translate(-2-37.5)"/>
			<path d="m0,2l2-1,2,1m0,2l-2-1-2,1" transform="rotate(90)translate(-2-37.5)"/>

			<path d="m0,2l4-2m-2,1v4" transform="rotate(70)translate(-2,32.5)"/>
			<path d="m0,2v2l2,1,2-1v-2l-2-1-2,1" transform="rotate(60)translate(-2,32.5)"/>
			<path d="m0,1v4m2-2l-2,1,2,1,2-1v-3,2l-2-1v-2" transform="rotate(50)translate(-2,32.5)"/>
			<path d="m0,2v2l2,1,2-1v-2l-2-1-2,1" transform="rotate(40)translate(-2,32.5)"/>

			<path d="m0,4l2,1,2-1v-4" transform="rotate(20)translate(-2,32.5)"/>
			<path d="m0,2l2-1,2,1v2l-2,1-2-1,2-1,2,1" transform="rotate(10)translate(-2,32.5)"/>
			<path d="m0,5v-3l2-1,2,1v1l-2,1-2-1" transform="rotate(0)translate(-2,32.5)"/>
			<path d="m0,2l2-1,2,1v2l-2,1-2-1,2-1,2,1" transform="rotate(-10)translate(-2,32.5)"/>
			<path d="m0,5v-3l2-1,2,1v3" transform="rotate(-20)translate(-2,32.5)"/>

			<path d="m0,3l4-2-2-1-2,1,4,2v1l-2,1-2-1v-1" transform="rotate(-40)translate(-2,32.5)"/>
			<path d="m0,3l2-1,2,1v1l-2,1-2-1v-3l2-1,2,1" transform="rotate(-50)translate(-2,32.5)"/>
			<path d="m0,1l2-1v5" transform="rotate(-60)translate(-2,32.5)"/>
			<path d="m0,4l2,1,2-1v-1l-2-1-2,1v-2l2-1,2,1" transform="rotate(-70)translate(-2,32.5)"/>
		</g>

		<defs>
			<linearGradient id="col" x1="0%" y1="0%" x2="100%" y2="100%">
				<stop offset="0" stop-color="#048"/><stop offset="1" stop-color="#8ac"/>
			</linearGradient>
		</defs>
		<circle r="31" style="fill:#fff;stroke:#ddd;"/>
		<path d="
			M13-13c3-17-29-17-26,0M7-19c8-6,21,8,17,19M21-3c8,6,1,23-9,23
			M-13,13c-3,17,29,17,26,0M-7,19c-8,6-21-8-17-19M-21,3c-8-6-1-23,9-23
			M11-11q-11-16-22,0-16,11,0,22,11,16,22,0,16-11,0-22
		" stroke="url(#col)"/>
		<path d="M13,0l-4-9-9-4-9,4-4,9,4,9,9,4,9-4z" stroke="#222"/>
		<circle r="11" stroke="#444"/>
		<path d="M-6-3v5l3,2v1 M0-6v4l-3,2v1 M3,0l-3,2v4 M6-3v5l-3,2v1" stroke="#666" stroke-width="1.5"/>
	</g>
</svg>