<svg xmlns="http://www.w3.org/2000/svg" width="576" height="256" viewBox="0 0 72 32">
	<desc>SAZANKA TXT</desc>
	<path d="M0,0v99h99v-99z" style="fill:none;"/>
	<path d="
		M2,2
		m8,2l-4,-2,-4,2,0,2,8,4,0,2,-4,2,-4,-2m8,-10
		m2,0
		m8,12l0,-10,-4,-2,-4,2,0,10m0,-8,8,4m0,-8
		m2,0
		m0,2l4,-2,4,2,-8,8,4,2,4,-2m0,-10
		m2,0
		m8,12l0,-10,-4,-2,-4,2,0,10m0,-8,8,4m0,-8
		m2,0
		m0,12v-10l8,8m0,2v-10m0,-2
		m2,0
		m0,2v10m0,-2l8,-8m-4,4l4,4v2m0,-12
		m2,0
		m8,12l0,-10,-4,-2,-4,2,0,10m0,-8,8,4m0,-8


		M2,18
		m4,6l4,-2,0,-2,-4,-2,-4,2,0,10m0,-8l8,4,0,4m0,-12
		m2,7
		m0,1l2,-1,2,1,0,3,-2,1,-2,-1,0,-3m4,-1
		m2,0
		m0,1l2,-1,2,1,0,3,-2,1,-2,-1,0,-7m4,3
		m2,0
		m0,1l2,-1,2,1,0,3,-2,1,-2,-1,0,-3m4,-1
		m2,0
		m0,1l2,-1m0,5l-2,-1,0,-7m2,3
		m2,0
		m0,5v-5m0,-2v-1m0,3
		m2,0
		m4,1l-2,-1,-2,1,0,3,2,1,2,-1m0,-4
		m2,0
		m4,1l-2,-1,-2,1,0,.5,4,2,0,.5,-2,1,-2,-1
	" style="fill:none;stroke:#fff;stroke-width:1;stroke-linecap:round;stroke-linejoin:round;"/>
</svg>