<svg xmlns="http://www.w3.org/2000/svg" width="512" height="512" viewBox="0 0 47 33">
	<desc>SAZANKA LOGO TXT</desc>
	<path d="
		M2,2
		m4,1l-2-1-2,1v1l4,2-2,1-2-1m4-4
		m2,0
		m0,5v-4l2-1,2,1v4-1l-4-2m4-2
		m2,0
		m0,1l2-1,2,1v1l-4,2,2,1,2-1m0-4
		m2,0
		m0,5v-4l2-1,2,1v4-1l-4-2m4-2
		m2,0
		m0,5v-4,1l4,2v1-4m0-1
		m2,0
		m0,1v4-1l4-2v-1m-2,2l2,1v1m0-5
		m2,0
		m0,5v-4l2-1,2,1v4-1l-4-2m4-2

		M5,8
		m4,5v-1l-4-2v3-4l2-1,2,1v1l-2,1m2,-3
		m2,0
		m0,2v2l2,1,2-1v-2l-2-1-2,1m4-2
		m2,0
		m0,0v4l2,1,2-1v-2l-2-1-2,1m4-2
		m2,0
		m0,2v2l2,1,2-1v-2l-2-1-2,1m4-2
		m2,0
		m0,0v4l2,1m-2-3l2-1m2,3v-2m0-2v0
		m2,0
		m4,2l-2-1-2,1v2l2,1,2-1m0-4
		m2,0
		m4,2l-2-1-2,1,4,2-2,1-2-1m4-4

		M8,14
		m0,3l4-2-2-1-2,1,4,2v1l-2,1-2-1v-1m4-3
		m2,0
		m0,3l2-1,2,1v1l-2,1-2-1v-3l2-1,2,1m0-1
		m2,0
		m0,1l2-1v5m2-5
		m2,0
		m0,4l2,1,2-1v-1l-2-1-2,1v-2l2-1,2,1m0-1
		m2,0
		m4,0
		m2,0
		m0,2l2-1,2,1m0,2l-2-1-2,1m4-4

		M11,20
		m0,2l4-2m-2,1v4m2-5
		m2,0
		m0,2v2l2,1,2-1v-2l-2-1-2,1m4-2
		m2,0
		m0,1v4m2-2l-2,1,2,1,2-1v-3,2l-2-1v-2m2,0
		m2,0
		m0,2v2l2,1,2-1v-2l-2-1-2,1m4-2

		M14,26
		m0,4l2,1,2-1v-4
		m2,0
		m0,2l2-1,2,1v2l-2,1-2-1,2-1,2,1m0-4
		m2,0
		m0,5v-3l2-1,2,1v1l-2,1-2-1m4-3
		m2,0
		m0,2l2-1,2,1v2l-2,1-2-1,2-1,2,1m0-4
		m2,0
		m0,5v-3l2-1,2,1v3m0-5
	" style="fill:none;stroke:#888;stroke-width:.5;stroke-linecap:round;stroke-linejoin:round;"/>
</svg>